<svg width="870" height="870" viewBox="0 0 870 870" fill="none" xmlns="http://www.w3.org/2000/svg">
<path d="M860.4 421.9L23.9 2.50007C20.5 0.800069 16.6 0.400072 12.9 1.30007C4.39998 3.40007 -0.900027 12.0001 1.19997 20.6001L87.4 372.8C88.7 378.1 92.6 382.4 97.8 384.1L245.5 434.8L97.9 485.5C92.7 487.3 88.8 491.5 87.6 496.8L1.19997 849.5C0.299972 853.2 0.699977 857.1 2.39998 860.4C6.29998 868.3 15.9 871.5 23.9 867.6L860.4 450.6C863.5 449.1 866 446.5 867.6 443.5C871.5 435.5 868.3 425.9 860.4 421.9ZM99.8 749.3L150.1 543.7L445.3 442.4C447.6 441.6 449.5 439.8 450.3 437.4C451.7 433.2 449.5 428.7 445.3 427.2L150.1 326L100 121.2L728 436.1L99.8 749.3Z" fill="#F06724"/>
</svg>
