<svg width="36" height="36" viewBox="0 0 36 36" fill="none" xmlns="http://www.w3.org/2000/svg">
<path d="M18 3C12.477 3 8 7.477 8 13V23H12V13C12 11.4087 12.6321 9.88258 13.7574 8.75736C14.8826 7.63214 16.4087 7 18 7C19.5913 7 21.1174 7.63214 22.2426 8.75736C23.3679 9.88258 24 11.4087 24 13V23H28V13C28 7.477 23.523 3 18 3Z" fill="#AAB8C2"/>
<path d="M31 32C31 33.0609 30.5786 34.0783 29.8284 34.8284C29.0783 35.5786 28.0609 36 27 36H9C7.93913 36 6.92172 35.5786 6.17157 34.8284C5.42143 34.0783 5 33.0609 5 32V20C5 18.9391 5.42143 17.9217 6.17157 17.1716C6.92172 16.4214 7.93913 16 9 16H27C28.0609 16 29.0783 16.4214 29.8284 17.1716C30.5786 17.9217 31 18.9391 31 20V32Z" fill="#AAB8C2"/>
</svg>
